<svg width="1200" height="630" viewBox="0 0 1200 630" fill="none" xmlns="http://www.w3.org/2000/svg">
  <rect width="1200" height="630" fill="#09090B"/>
  <rect x="64" y="64" width="1072" height="502" rx="34" fill="#111113" stroke="#27272A" stroke-width="2"/>
  <circle cx="116" cy="124" r="10" fill="#FF5F57"/>
  <circle cx="152" cy="124" r="10" fill="#FEBC2E"/>
  <circle cx="188" cy="124" r="10" fill="#28C840"/>
  <rect x="418" y="100" width="364" height="48" rx="14" fill="#09090B" stroke="#27272A"/>
  <text x="600" y="131" text-anchor="middle" fill="#A1A1AA" font-family="SFMono-Regular, Menlo, Consolas, monospace" font-size="20">cognitivemode.app</text>

  <rect x="128" y="218" width="104" height="104" rx="24" fill="#08060D" stroke="#27272A" stroke-width="2"/>
  <g fill="#863BFF">
    <rect x="154" y="244" width="52" height="16" rx="3.5"/>
    <rect x="154" y="244" width="16" height="52" rx="3.5"/>
    <rect x="154" y="280" width="52" height="16" rx="3.5"/>
  </g>

  <text x="380" y="238" fill="#A1A1AA" font-family="SFMono-Regular, Menlo, Consolas, monospace" font-size="20" letter-spacing="4">COGNITIVE MODE</text>
  <text x="380" y="306" fill="#FAFAFA" font-family="SFMono-Regular, Menlo, Consolas, monospace" font-size="42" font-weight="700">Pause before AI.</text>
  <text x="380" y="358" fill="#A1A1AA" font-family="system-ui, -apple-system, BlinkMacSystemFont, Segoe UI, sans-serif" font-size="24">Local-first Hypothesis Gate for deliberate AI.</text>

  <rect x="380" y="428" width="470" height="68" rx="18" fill="#09090B" stroke="#27272A"/>
  <text x="416" y="470" fill="#A1A1AA" font-family="SFMono-Regular, Menlo, Consolas, monospace" font-size="21">What is your hypothesis?</text>
  <circle cx="812" cy="462" r="7" fill="#34D399"/>
  <text x="128" y="528" fill="#71717A" font-family="SFMono-Regular, Menlo, Consolas, monospace" font-size="20">100% local. Zero servers. Your thoughts stay yours.</text>
</svg>
